<?xml version="1.0" standalone="no"?>
<!DOCTYPE svg PUBLIC "-//W3C//DTD SVG 20010904//EN"
 "http://www.w3.org/TR/2001/REC-SVG-20010904/DTD/svg10.dtd">
<svg version="1.0" xmlns="http://www.w3.org/2000/svg"
 width="500.000000pt" height="500.000000pt" viewBox="0 0 500.000000 500.000000"
 preserveAspectRatio="xMidYMid meet">

<g transform="translate(0.000000,500.000000) scale(0.100000,-0.100000)"
fill="#000000" stroke="none">
<path d="M2295 4994 c-16 -2 -84 -11 -150 -20 -537 -72 -1073 -349 -1459 -755
-355 -373 -580 -839 -663 -1369 -25 -161 -25 -538 0 -700 82 -531 311 -1002
667 -1373 331 -346 755 -591 1220 -706 217 -53 329 -66 590 -66 261 0 373 13
590 66 348 86 692 255 975 479 114 90 337 318 424 433 208 279 358 595 440
928 54 220 66 330 66 589 0 257 -12 364 -65 585 -237 988 -1050 1732 -2070
1890 -100 16 -494 29 -565 19z m359 -1395 c84 -33 156 -79 218 -138 51 -50 96
-122 388 -636 361 -632 374 -660 374 -800 -1 -170 -70 -309 -187 -372 -51 -28
-188 -25 -250 6 -63 31 -148 109 -193 177 -49 73 -146 161 -235 211 -183 104
-394 109 -555 12 -74 -45 -202 -183 -250 -271 -100 -182 -283 -216 -468 -89
-122 84 -170 349 -96 520 12 25 168 304 348 620 222 390 342 591 375 627 139
153 346 205 531 133z"/>
<path d="M2460 3146 c-150 -41 -266 -163 -286 -298 -16 -116 66 -257 184 -315
49 -24 69 -28 142 -28 102 0 153 20 219 86 67 67 95 136 94 234 0 116 -23 175
-92 246 -44 45 -68 61 -110 73 -64 19 -90 19 -151 2z"/>
</g>
</svg>
