<?xml version="1.0" standalone="no"?>
<!DOCTYPE svg PUBLIC "-//W3C//DTD SVG 20010904//EN"
 "http://www.w3.org/TR/2001/REC-SVG-20010904/DTD/svg10.dtd">
<svg version="1.0" xmlns="http://www.w3.org/2000/svg"
 width="725.000000pt" height="1538.000000pt" viewBox="0 0 725.000000 1538.000000"
 preserveAspectRatio="xMidYMid meet">

<g transform="translate(0.000000,1538.000000) scale(0.100000,-0.100000)"
fill="#000000" stroke="none">
<path d="M3073 15341 c-67 -17 -129 -39 -153 -55 -22 -14 -48 -26 -59 -26 -26
0 -199 -56 -216 -70 -28 -23 -162 -82 -205 -90 -83 -15 -150 -38 -243 -83 -50
-25 -113 -48 -139 -52 -78 -10 -157 -57 -213 -125 -27 -33 -51 -64 -55 -69
-10 -16 -69 -41 -96 -41 -49 0 -224 -132 -267 -202 -9 -15 -50 -52 -90 -81
-46 -34 -93 -80 -124 -123 -27 -38 -89 -108 -136 -155 -60 -59 -89 -96 -93
-118 -4 -17 -10 -31 -14 -31 -4 0 -13 -14 -20 -30 -7 -17 -25 -39 -40 -50 -35
-25 -87 -103 -100 -149 -6 -23 -22 -44 -42 -58 -62 -42 -145 -138 -218 -253
-40 -63 -90 -136 -112 -162 -43 -51 -75 -119 -107 -223 -12 -39 -33 -92 -46
-120 -13 -27 -31 -79 -40 -115 -19 -77 -27 -102 -60 -199 -14 -40 -28 -106
-31 -145 -7 -82 12 -294 28 -313 7 -8 8 -39 4 -85 -8 -83 3 -146 39 -222 13
-28 27 -63 30 -79 4 -15 28 -48 54 -75 52 -52 104 -125 116 -160 4 -13 20 -39
37 -58 17 -19 52 -77 78 -129 l48 -95 -29 -25 c-17 -13 -85 -51 -152 -83 -149
-72 -165 -87 -149 -141 14 -47 54 -91 82 -91 20 0 78 -78 99 -132 8 -21 35
-82 77 -175 8 -17 14 -35 14 -41 0 -20 90 -213 120 -257 44 -64 145 -170 186
-196 26 -16 34 -27 34 -49 0 -16 4 -32 10 -35 5 -3 10 -26 10 -50 0 -24 5 -47
10 -50 6 -3 10 -17 10 -30 0 -25 30 -87 58 -117 8 -10 26 -18 38 -18 43 0 43
53 2 188 -12 40 -11 45 6 58 24 17 46 2 46 -30 0 -13 6 -42 14 -67 7 -24 26
-84 40 -134 15 -49 34 -106 42 -125 26 -59 88 -150 107 -156 36 -11 44 11 45
122 1 58 4 110 7 115 4 5 7 36 9 70 2 51 7 65 27 81 42 34 162 88 196 88 17 0
42 4 55 9 13 5 46 12 75 16 51 7 53 6 73 -27 18 -28 21 -44 16 -100 -2 -36
-11 -79 -19 -95 -8 -15 -20 -55 -27 -88 -16 -74 -22 -85 -76 -152 -52 -64 -56
-95 -21 -193 30 -83 54 -126 94 -167 38 -41 59 -41 120 -3 65 41 95 39 130 -7
15 -21 46 -56 69 -78 83 -83 133 -179 119 -232 -3 -14 -1 -50 5 -79 14 -65 63
-118 125 -136 75 -22 85 -39 85 -146 0 -127 15 -153 136 -238 112 -77 173
-103 262 -107 120 -7 131 21 45 113 -31 34 -80 76 -107 94 -73 46 -103 95
-116 185 l-10 75 29 30 c47 50 54 73 47 141 l-6 62 31 7 c17 3 66 6 108 6 65
0 86 5 141 31 68 33 78 34 278 37 87 2 105 5 122 22 24 24 26 53 4 74 -18 19
-114 21 -184 5 -103 -24 -212 -37 -320 -38 -63 0 -147 -4 -187 -7 -100 -9
-136 5 -157 59 -20 54 -21 121 -1 137 12 10 20 8 44 -12 17 -12 30 -28 30 -34
1 -6 9 -18 19 -27 23 -21 50 -5 57 34 7 39 32 94 49 108 8 7 27 11 43 9 24 -3
29 -9 36 -43 13 -57 21 -70 48 -70 19 0 25 8 35 41 29 101 68 134 157 134 34
0 50 -6 71 -26 14 -15 26 -31 26 -36 0 -5 12 -8 27 -6 20 2 30 10 35 31 5 15
11 39 16 54 11 40 79 75 144 75 37 -1 61 -8 89 -26 57 -38 80 -34 107 18 20
36 34 49 83 71 61 27 83 27 124 -1 32 -22 59 -16 95 21 44 45 84 46 157 5 32
-18 67 -30 90 -30 21 0 43 -4 49 -8 17 -11 34 -48 34 -74 0 -52 52 -63 123
-27 88 46 202 122 244 164 38 39 43 49 43 89 0 78 -5 79 -312 73 -213 -3 -272
-8 -313 -21 -27 -10 -72 -21 -100 -26 -142 -23 -179 -32 -213 -50 -45 -24
-119 -26 -165 -4 -32 16 -37 15 -91 -5 -31 -11 -66 -21 -77 -21 -11 0 -36 -7
-57 -16 -31 -14 -70 -16 -241 -14 -113 1 -214 7 -227 12 -44 20 -35 73 20 120
12 10 56 38 98 63 88 52 108 75 108 127 0 69 -100 148 -187 148 -32 0 -60 15
-109 60 -34 31 -53 40 -110 49 -98 16 -170 2 -206 -41 -16 -18 -28 -36 -28
-40 0 -15 -65 -8 -95 10 -18 11 -42 42 -59 78 -16 32 -36 66 -43 76 -13 14 -8
20 39 51 99 67 137 112 196 236 91 194 133 341 152 531 7 72 20 142 30 165 41
93 134 145 258 145 70 0 68 2 142 -135 95 -175 268 -414 352 -485 109 -94 123
-101 300 -165 64 -22 88 -62 88 -144 0 -55 -3 -66 -28 -91 -42 -42 -92 -51
-300 -53 l-187 -2 -53 -34 c-59 -38 -71 -65 -48 -109 20 -40 44 -46 97 -27 28
9 81 15 143 15 88 0 104 3 142 25 24 14 66 30 94 35 28 5 81 22 118 37 136 55
197 43 821 -159 198 -63 222 -76 303 -160 84 -88 110 -151 84 -205 -20 -43
-20 -69 0 -77 30 -12 52 13 73 83 23 77 28 191 10 255 -26 93 -116 173 -309
276 -118 62 -205 122 -220 150 -30 56 7 125 100 191 63 44 109 65 270 125 120
44 118 43 220 107 136 84 155 99 195 151 116 152 150 299 165 720 7 211 11
242 28 265 27 37 105 77 176 91 34 6 98 20 143 31 45 10 89 19 98 19 35 0 9
-42 -81 -130 -88 -87 -95 -97 -90 -124 9 -42 14 -45 97 -61 41 -7 117 -27 169
-44 125 -42 156 -45 208 -27 109 39 131 -68 37 -179 -63 -75 -72 -98 -79 -215
-8 -121 -2 -137 59 -181 38 -26 43 -27 99 -18 50 8 67 7 120 -11 72 -25 126
-72 126 -110 0 -22 -6 -29 -39 -38 -53 -16 -71 -15 -116 8 -48 25 -58 25 -78
2 -26 -28 -22 -67 8 -80 36 -17 139 -15 182 3 24 10 70 15 142 15 124 0 178
19 211 73 23 37 26 101 6 138 -7 14 -23 57 -34 95 -31 97 -76 154 -153 193
-54 27 -73 31 -140 31 -88 0 -102 8 -120 70 -11 35 -10 42 7 61 10 12 39 31
64 42 25 11 60 33 78 48 57 50 108 30 131 -51 21 -73 60 -141 121 -210 38 -43
63 -83 75 -117 12 -39 22 -53 35 -53 29 0 35 18 39 130 15 381 -9 537 -86 578
-46 25 -176 9 -211 -26 -28 -28 -74 -62 -83 -62 -14 0 -10 80 5 125 29 86 163
137 208 80 11 -14 32 -32 47 -39 23 -13 29 -12 48 2 35 29 42 52 30 109 -9 42
-8 66 6 125 10 40 17 107 17 148 0 41 12 129 25 195 29 139 31 189 10 265 -9
30 -20 91 -25 135 -4 44 -20 121 -35 170 -14 50 -31 126 -37 170 -6 44 -23
109 -38 145 -16 36 -34 93 -41 128 -7 40 -27 88 -52 130 -23 37 -55 103 -73
147 -57 141 -74 168 -167 260 -51 50 -127 127 -169 173 -42 45 -79 82 -82 82
-3 0 -14 7 -23 16 -10 9 -56 38 -103 64 -127 72 -161 93 -189 116 -37 30 -198
122 -246 141 -22 8 -67 22 -100 30 -91 24 -153 50 -193 81 -70 55 -193 102
-268 102 -52 0 -154 20 -154 31 0 4 -24 15 -52 25 -29 9 -75 31 -103 48 -46
28 -58 31 -157 35 -62 2 -121 -1 -139 -8 -24 -8 -39 -7 -67 5 -21 8 -55 19
-77 23 -71 15 -238 68 -298 95 -32 14 -86 30 -120 35 -72 10 -185 42 -272 76
-101 40 -198 55 -345 54 -113 0 -153 -5 -247 -28z m998 -1963 c10 -13 18 -28
19 -34 0 -6 12 -49 26 -95 24 -74 26 -89 15 -127 -21 -81 -14 -110 45 -170 19
-19 36 -50 40 -68 3 -18 15 -41 25 -50 17 -16 26 -16 82 -5 177 36 236 41 280
26 23 -8 51 -15 62 -15 24 0 59 27 75 58 6 13 38 36 72 52 34 16 75 42 92 58
17 16 54 44 81 62 28 18 63 45 78 59 28 25 29 26 43 7 18 -25 18 -68 -1 -130
-8 -27 -15 -62 -15 -77 0 -44 -30 -54 -82 -29 -71 34 -114 19 -87 -31 15 -28
2 -57 -32 -75 -25 -13 -30 -20 -27 -47 2 -26 10 -35 43 -51 22 -10 66 -34 97
-53 69 -41 131 -46 252 -20 44 10 89 14 100 11 28 -9 127 -112 150 -157 10
-19 54 -72 98 -117 50 -50 78 -87 76 -98 -3 -15 -33 -18 -318 -29 -771 -30
-799 -31 -968 -61 -90 -15 -165 -25 -168 -21 -7 12 7 17 122 39 235 45 283 63
284 107 0 24 -43 63 -70 63 -10 0 -53 12 -96 26 -75 24 -87 25 -244 20 -91 -2
-199 -9 -240 -15 -41 -5 -109 -14 -150 -20 -42 -5 -130 -26 -196 -45 -88 -26
-140 -36 -191 -36 -57 0 -79 -5 -119 -27 -27 -14 -112 -57 -189 -95 -171 -85
-202 -107 -210 -152 -10 -51 37 -124 114 -176 l34 -23 -29 -24 c-43 -34 -262
-103 -378 -119 -56 -7 -263 -18 -461 -24 -379 -12 -475 -19 -546 -44 -24 -9
-55 -16 -69 -16 l-24 0 27 22 c41 33 122 48 302 58 236 12 417 60 439 116 11
30 -15 97 -52 132 -78 74 -157 102 -286 102 -69 0 -206 33 -218 53 -23 36 5
43 207 51 169 7 205 13 355 61 68 22 113 30 305 55 33 5 76 13 95 19 19 6 66
11 105 11 51 0 80 5 105 20 33 18 79 41 225 110 33 16 76 32 95 35 96 20 150
67 261 231 26 39 66 86 89 104 45 35 80 95 80 135 0 40 38 104 94 160 91 91
142 161 176 243 30 72 41 86 73 91 5 0 17 -9 28 -21z m885 -1327 c39 -5 84
-21 125 -44 119 -67 142 -158 135 -522 -3 -126 -10 -247 -16 -268 -6 -22 -32
-73 -58 -115 -56 -90 -137 -155 -246 -198 -39 -15 -89 -35 -111 -45 -66 -28
-245 -85 -320 -102 -193 -42 -375 -56 -610 -48 l-180 7 -95 42 c-108 48 -164
92 -249 196 -71 87 -205 333 -227 420 -29 112 5 238 71 259 26 9 31 7 50 -18
73 -102 283 -255 395 -288 176 -51 399 -52 545 -2 117 40 169 98 105 116 -14
4 -59 7 -101 8 -112 1 -166 26 -118 53 8 4 57 34 110 67 63 39 118 65 160 75
73 18 73 18 273 3 147 -11 149 -11 166 11 40 48 -14 94 -161 137 -100 29 -177
31 -305 9 -89 -16 -94 -16 -169 4 -86 23 -175 75 -175 101 0 27 30 49 80 60
25 5 86 19 135 30 133 30 195 39 345 46 74 4 162 11 195 15 63 9 148 6 251 -9z
m-3706 -76 c0 -9 -125 -131 -157 -153 -64 -45 -112 -165 -113 -284 0 -62 -6
-68 -39 -40 -35 28 -53 192 -31 273 14 51 97 117 200 161 96 41 140 54 140 43z
m580 -513 c0 -5 -35 -17 -77 -27 -43 -10 -105 -26 -138 -36 -100 -30 -146 -39
-248 -48 -114 -10 -150 -27 -145 -69 2 -20 13 -32 41 -45 20 -9 37 -22 37 -29
0 -6 -15 -29 -33 -52 -55 -68 -77 -115 -84 -176 -7 -74 11 -95 93 -106 48 -6
64 -3 103 16 50 24 106 65 161 116 85 80 280 114 280 48 0 -25 -30 -42 -102
-59 -130 -30 -158 -49 -158 -108 0 -61 90 -64 275 -9 361 107 486 132 506 101
27 -43 -18 -256 -80 -378 -31 -61 -87 -130 -124 -155 -147 -99 -246 -140 -462
-191 -55 -13 -125 -31 -155 -39 -109 -28 -208 -38 -346 -34 -172 5 -204 18
-317 131 -68 69 -84 92 -141 210 -46 95 -73 167 -95 254 -46 182 -52 169 81
177 62 3 149 9 194 12 63 5 87 3 112 -10 42 -22 79 -20 92 3 28 54 1 82 -108
112 -52 15 -102 19 -229 19 -90 0 -163 4 -163 8 0 29 245 182 292 182 28 0 57
-29 83 -80 21 -43 54 -80 71 -80 20 0 31 28 37 98 5 50 24 109 42 130 7 9 153
42 225 51 155 21 235 34 260 44 14 5 57 13 95 17 104 11 125 11 125 2z"/>
<path d="M6196 10635 c-20 -21 -20 -39 0 -59 15 -16 53 -21 129 -17 49 3 80
32 64 62 -8 17 -19 19 -72 17 -34 -2 -72 1 -83 5 -15 5 -27 3 -38 -8z"/>
<path d="M6650 10474 l-62 -58 -106 -17 c-59 -10 -145 -18 -191 -19 -53 0
-108 -7 -151 -20 -58 -17 -71 -26 -99 -66 -30 -40 -33 -51 -27 -89 3 -25 1
-47 -4 -50 -30 -18 2 -79 45 -87 19 -3 20 -10 16 -188 -2 -102 -8 -210 -15
-242 -15 -76 -15 -320 1 -325 6 -2 14 13 18 39 16 106 29 157 56 211 16 32 31
81 34 110 4 28 17 93 30 142 13 50 31 124 41 165 16 71 21 79 83 142 51 51 76
69 111 77 82 21 125 45 178 100 28 30 52 59 52 64 0 6 25 36 56 69 60 63 67
91 23 96 -21 2 -41 -10 -89 -54z"/>
<path d="M4597 10503 c-17 -16 -6 -62 19 -82 32 -25 47 -26 68 -5 21 21 20 57
-2 77 -18 17 -73 23 -85 10z"/>
<path d="M1517 9262 c-10 -10 -17 -24 -17 -31 0 -22 118 -245 145 -274 41 -43
72 -60 100 -53 21 5 25 12 25 40 0 28 -9 42 -49 78 -60 54 -106 124 -126 193
-19 65 -47 82 -78 47z"/>
<path d="M3065 8679 c-106 -22 -146 -23 -215 -7 -43 10 -53 9 -67 -4 -29 -29
-4 -46 122 -79 57 -15 107 -19 272 -19 124 0 204 4 208 10 3 6 15 10 26 10 11
0 31 11 45 25 29 29 23 45 -27 71 -41 21 -250 17 -364 -7z"/>
<path d="M6100 8536 c0 -61 3 -69 46 -132 25 -37 64 -89 85 -116 21 -28 39
-56 39 -63 0 -7 -22 -33 -48 -57 -27 -23 -65 -68 -85 -98 -32 -48 -38 -67 -48
-152 -6 -53 -9 -119 -7 -145 6 -63 -19 -205 -48 -272 -13 -29 -24 -61 -24 -71
0 -10 -11 -48 -25 -84 -30 -81 -31 -97 -4 -122 19 -17 22 -18 49 -2 25 14 31
14 40 2 9 -10 8 -25 -4 -61 -9 -25 -16 -65 -16 -87 0 -22 -11 -63 -24 -91 -13
-27 -27 -63 -32 -80 -7 -23 -16 -30 -36 -31 -14 -1 -33 -4 -42 -7 -23 -9 -20
-60 4 -82 28 -25 26 -55 -3 -55 -42 0 -62 -24 -61 -72 1 -39 -3 -47 -29 -61
-29 -17 -29 -18 -22 -85 l7 -68 -49 0 c-42 1 -48 -2 -51 -21 -2 -13 9 -38 26
-60 33 -42 50 -97 32 -108 -6 -4 -25 4 -43 18 -41 31 -58 36 -79 25 -27 -13
-22 -43 15 -91 40 -53 61 -101 53 -123 -10 -27 -28 -11 -74 67 -68 115 -101
141 -132 104 -10 -12 0 -35 55 -127 37 -62 75 -122 85 -133 23 -27 31 -62 15
-75 -20 -16 -42 -2 -70 46 -31 53 -66 78 -95 69 -36 -11 -24 -60 40 -160 31
-49 60 -116 60 -140 0 -28 69 -135 126 -197 47 -50 56 -78 26 -78 -28 0 -74
56 -125 151 -26 48 -65 111 -87 140 -22 29 -40 59 -40 67 0 19 -46 106 -64
121 -11 9 -20 10 -35 1 -27 -14 -26 -30 3 -88 13 -26 27 -58 31 -72 4 -14 27
-52 51 -85 23 -33 66 -105 96 -160 63 -118 66 -151 13 -161 -52 -9 -69 -34
-62 -93 7 -61 -7 -70 -55 -35 -19 15 -43 24 -58 22 -22 -3 -25 -8 -23 -38 0
-19 4 -47 8 -62 6 -21 3 -27 -15 -33 -17 -5 -29 0 -51 24 -44 48 -63 42 -98
-31 -13 -27 -26 -48 -30 -48 -10 0 -46 40 -60 68 -14 26 -56 30 -69 6 -5 -9
-7 -38 -4 -65 6 -63 -11 -64 -56 -3 -25 33 -39 44 -55 42 -18 -2 -23 -11 -27
-53 -4 -36 -9 -50 -20 -50 -39 0 -167 347 -221 598 -10 48 -23 96 -29 108 -6
11 -9 25 -7 32 2 7 20 -38 40 -99 41 -129 55 -159 92 -197 33 -33 50 -34 66
-6 14 27 -5 99 -67 244 -7 17 -35 104 -64 195 -61 197 -85 245 -120 245 -27 0
-29 -12 -15 -115 l7 -45 -19 25 c-10 13 -27 42 -38 65 -16 32 -26 41 -51 43
-45 4 -59 -17 -46 -70 6 -23 9 -44 7 -47 -10 -9 -33 22 -50 64 -26 71 -80 72
-109 3 -9 -21 -14 -24 -26 -14 -8 6 -20 20 -26 31 -18 32 -50 30 -75 -4 l-23
-31 -23 22 c-17 16 -36 22 -64 22 -32 -1 -46 5 -69 28 -25 25 -32 27 -49 16
-16 -10 -26 -9 -53 5 -26 13 -73 17 -223 21 -131 3 -207 10 -245 21 -30 9 -83
18 -118 22 -34 3 -65 10 -68 14 -3 5 -12 9 -20 9 -24 0 -239 107 -356 177
-111 66 -201 132 -229 168 -10 11 -28 33 -41 48 -13 15 -30 44 -37 65 -7 20
-26 57 -41 82 -57 92 -133 254 -146 313 -8 34 -21 99 -29 143 -8 45 -19 94
-25 109 -5 14 -10 35 -10 46 0 34 18 20 35 -28 29 -83 49 -127 78 -178 27 -46
41 -86 67 -187 6 -21 24 -61 42 -90 78 -129 146 -196 289 -284 42 -25 103 -66
135 -91 32 -25 123 -76 200 -114 178 -86 283 -126 409 -157 22 -5 78 -24 125
-41 70 -25 100 -31 171 -31 72 0 89 3 103 19 20 22 18 50 -4 62 -8 4 -61 22
-118 40 -76 23 -136 51 -227 106 -110 66 -143 93 -278 226 -148 146 -155 154
-171 213 -16 61 -22 203 -10 263 4 19 19 40 38 54 28 20 42 22 171 22 131 0
249 15 285 36 78 46 99 52 209 62 105 9 123 13 191 48 98 51 167 102 190 142
24 40 136 134 258 216 68 46 98 72 108 96 7 18 27 54 44 78 32 48 37 76 18 95
-19 19 -37 14 -71 -21 -18 -19 -57 -44 -87 -57 -66 -27 -96 -52 -110 -94 -9
-25 -25 -38 -88 -68 -42 -20 -95 -52 -118 -71 -27 -24 -62 -41 -105 -52 -90
-24 -146 -16 -206 27 -60 43 -84 49 -146 38 -38 -8 -62 -6 -103 6 -43 12 -61
13 -88 4 -19 -6 -36 -14 -38 -18 -2 -4 -22 -22 -45 -39 -44 -34 -103 -45 -103
-20 0 18 -42 57 -61 57 -8 0 -41 -18 -74 -40 -33 -22 -64 -40 -70 -40 -5 0
-29 13 -52 29 -23 15 -61 31 -84 35 -23 4 -72 25 -108 46 -37 22 -71 40 -75
40 -4 0 -20 8 -34 19 -15 10 -53 33 -85 50 -50 27 -67 31 -137 31 -69 0 -82
-3 -106 -24 -27 -23 -28 -25 -17 -72 6 -27 32 -85 57 -129 25 -44 46 -85 46
-91 0 -6 16 -25 35 -42 22 -21 36 -44 41 -69 3 -21 16 -56 29 -78 31 -55 48
-134 40 -187 -5 -32 -1 -58 15 -100 12 -32 19 -62 16 -67 -10 -16 -84 40 -125
94 -57 75 -66 98 -125 302 -45 155 -60 192 -82 211 -22 19 -27 31 -24 60 5 55
3 119 -3 136 -4 10 -19 16 -37 16 -26 0 -33 -6 -46 -36 -8 -19 -18 -66 -21
-102 -4 -45 -13 -78 -28 -100 -57 -84 -243 -216 -363 -259 -69 -24 -85 -33
-265 -161 -65 -46 -152 -103 -193 -127 -58 -33 -89 -59 -131 -111 -75 -94 -79
-105 -88 -213 -4 -52 -11 -106 -17 -120 -5 -14 -16 -66 -23 -114 -10 -68 -21
-102 -47 -145 -62 -104 -70 -130 -64 -219 3 -46 14 -104 26 -134 19 -48 21
-66 15 -154 -7 -99 -7 -102 19 -132 15 -17 36 -53 47 -79 12 -26 43 -68 69
-93 52 -51 66 -84 120 -291 16 -63 39 -126 50 -140 11 -14 27 -35 36 -47 23
-32 73 -180 85 -253 6 -36 20 -96 30 -133 17 -56 25 -70 47 -79 15 -5 34 -13
42 -18 20 -9 59 -115 59 -162 2 -68 28 -106 65 -92 8 3 19 18 24 32 l10 27 6
-30 c3 -16 11 -50 18 -75 6 -25 14 -65 18 -90 7 -50 39 -119 65 -140 24 -20
71 -91 80 -120 11 -37 49 -73 155 -150 148 -107 173 -110 239 -31 51 61 141
202 141 221 0 8 7 28 15 44 8 15 15 35 15 44 0 14 10 37 53 132 24 51 68 109
88 115 29 9 46 -9 60 -66 7 -27 21 -57 31 -66 17 -15 19 -15 37 1 11 10 25 31
31 47 7 16 16 29 21 29 15 0 31 -82 39 -203 5 -72 14 -127 23 -140 7 -12 17
-37 21 -56 8 -43 32 -71 60 -71 50 0 68 -29 83 -135 3 -23 23 -65 47 -100 81
-118 87 -151 72 -380 -7 -102 -6 -117 19 -200 31 -106 52 -134 89 -117 23 10
26 9 36 -23 6 -19 11 -49 10 -67 -4 -84 1 -122 24 -190 14 -41 30 -98 36 -127
10 -52 44 -121 60 -121 17 0 34 33 32 62 -2 30 12 58 29 58 13 0 59 -96 59
-123 0 -27 33 -62 49 -53 5 4 13 28 16 54 14 99 20 103 53 29 43 -94 48 -102
62 -102 10 0 17 14 20 39 12 94 48 23 60 -119 5 -49 16 -117 25 -150 9 -33 20
-87 24 -120 9 -66 25 -105 44 -105 17 0 61 -91 96 -200 26 -83 144 -311 186
-360 19 -22 194 -307 240 -391 69 -125 83 -148 130 -220 26 -39 57 -74 71 -79
18 -7 24 -17 24 -38 0 -33 20 -53 100 -104 45 -29 141 -122 205 -200 10 -12
21 -15 42 -9 29 8 35 24 50 123 6 42 23 42 23 0 0 -35 26 -72 50 -72 10 0 28
12 39 26 26 33 28 128 5 224 -8 36 -15 100 -15 142 0 86 14 122 79 204 22 28
43 61 47 75 4 13 14 28 22 34 24 18 42 115 53 279 9 148 12 161 41 216 17 33
40 62 50 65 11 4 22 18 25 33 3 15 12 40 21 55 13 24 13 38 3 93 -11 57 -10
67 4 83 9 10 16 34 16 54 0 61 34 149 107 272 14 23 18 55 19 140 1 132 18
315 34 370 7 22 29 60 49 85 21 25 43 54 48 65 19 36 41 148 48 240 3 50 12
120 20 157 16 79 10 112 -36 176 -21 29 -35 64 -42 109 l-12 66 33 27 c17 14
53 37 78 49 l46 23 21 -20 c19 -19 19 -24 7 -49 -8 -15 -14 -46 -15 -68 0 -32
-5 -42 -22 -50 -28 -12 -29 -42 -3 -75 l20 -25 24 27 c25 28 42 100 53 223 6
76 40 157 72 175 14 7 22 25 25 58 4 26 13 75 21 109 8 34 15 75 15 91 0 16
11 65 25 108 14 43 25 91 25 106 0 15 20 64 44 110 43 82 66 170 66 252 0 21
11 71 25 112 19 57 25 95 25 162 0 104 12 140 81 255 49 84 52 92 60 185 5 53
13 118 19 144 5 26 12 91 16 145 3 54 17 139 29 188 13 50 29 135 35 190 5 55
17 129 25 165 9 36 20 92 25 125 6 33 17 83 26 110 10 31 20 110 25 210 5 108
14 184 28 235 35 126 54 260 52 355 -1 56 4 120 15 170 10 44 18 112 20 150 1
39 5 108 9 155 4 47 3 149 -3 227 -8 124 -13 150 -37 199 -34 69 -71 112 -148
171 -68 53 -220 154 -269 179 -40 21 -168 122 -168 133 0 4 -10 18 -22 31 -12
13 -29 38 -38 54 -9 18 -24 32 -37 34 -22 3 -23 0 -23 -62z m495 -497 c6 -6
13 -54 16 -107 9 -145 13 -142 -165 -142 l-144 0 -12 29 c-6 16 -10 42 -8 57
l3 29 97 0 c58 0 101 4 108 11 6 6 15 36 19 65 4 30 11 60 15 68 9 14 53 7 71
-10z m-15 -344 c16 -19 -2 -65 -25 -65 -20 0 -20 -44 0 -60 21 -17 19 -46 -5
-70 -25 -25 -25 -35 2 -72 19 -28 20 -33 7 -56 -37 -66 -73 -53 -205 78 -72
72 -84 89 -79 110 18 80 261 188 305 135z m-256 -867 c9 -12 16 -35 16 -50 0
-31 6 -34 100 -63 70 -21 90 -39 90 -82 0 -45 -35 -60 -100 -43 -94 25 -112
19 -124 -41 -3 -15 -13 -29 -21 -33 -22 -8 -62 13 -68 35 -9 33 11 269 23 284
19 23 66 19 84 -7z m120 -329 c33 -26 33 -43 0 -91 -25 -36 -26 -39 -10 -56
22 -25 20 -35 -9 -78 -22 -32 -23 -39 -12 -53 22 -25 27 -49 17 -76 -8 -21
-16 -25 -47 -25 -35 1 -83 27 -83 46 0 4 -9 17 -20 29 -29 30 -80 134 -80 162
0 16 13 32 41 51 22 15 63 46 92 69 60 48 74 51 111 22z m-35 -460 c29 -18 32
-24 27 -52 -3 -18 -8 -66 -11 -107 -7 -86 -20 -127 -45 -140 -20 -11 -217 -2
-241 11 -9 5 -19 21 -22 35 -5 27 9 83 21 85 4 1 39 3 79 4 39 1 76 6 82 9 6
4 11 30 11 57 0 65 24 113 60 118 3 1 20 -8 39 -20z m-1827 -366 c26 -30 46
-77 64 -149 9 -38 23 -82 31 -97 8 -16 21 -66 29 -112 8 -47 27 -113 43 -148
16 -35 32 -91 36 -125 l7 -62 -31 0 c-40 0 -54 27 -75 151 -18 107 -101 369
-147 467 -24 50 -28 66 -19 78 17 19 44 18 62 -3z m1752 -25 c23 -32 20 -61
-8 -87 -27 -25 -25 -47 6 -69 22 -16 24 -55 3 -72 -11 -9 -14 -23 -9 -46 8
-44 -1 -69 -32 -82 -38 -18 -58 -14 -86 16 -39 42 -128 183 -128 202 0 10 26
39 58 64 31 26 64 53 73 60 52 42 100 48 123 14z m-1846 -101 c6 -7 27 -72 46
-143 19 -71 42 -149 50 -173 9 -24 16 -58 16 -76 0 -17 7 -54 15 -81 19 -62
19 -98 0 -114 -43 -35 -75 28 -121 234 -14 66 -29 129 -34 141 -4 12 -16 61
-25 110 -13 71 -14 93 -4 111 12 24 32 21 57 -9z m-142 -85 c6 -4 24 -59 39
-122 15 -63 37 -146 48 -184 11 -38 20 -92 21 -120 1 -50 1 -51 -29 -51 -31 0
-30 -2 -54 95 -7 25 -19 72 -27 105 -9 33 -22 96 -29 140 -7 44 -16 87 -20 96
-3 9 1 24 10 33 18 18 25 19 41 8z m-102 -95 c3 -12 6 -39 6 -60 0 -20 4 -45
9 -55 17 -33 31 -89 31 -123 0 -19 6 -59 13 -89 16 -67 13 -80 -19 -80 -41 0
-61 48 -89 215 -27 164 -28 182 -6 204 24 24 47 19 55 -12z m-123 -132 c19
-90 19 -115 -1 -115 -13 0 -70 126 -70 156 0 37 11 55 33 52 17 -3 23 -18 38
-93z m-1656 -121 c24 -24 18 -232 -7 -248 -31 -19 -53 4 -56 59 l-3 48 -102
-6 c-106 -6 -137 1 -137 31 0 33 22 42 101 42 110 0 139 7 139 36 0 22 23 54
40 54 5 0 16 -7 25 -16z m3195 -83 c0 -21 2 -51 5 -67 3 -16 1 -36 -5 -44 -8
-13 -14 -10 -35 15 -53 63 -57 72 -44 97 15 29 28 38 57 38 19 0 22 -5 22 -39z
m-205 -37 c37 -15 49 -66 65 -284 6 -69 14 -170 20 -225 10 -105 6 -155 -13
-155 -27 0 -42 45 -42 130 -1 76 -4 90 -30 133 -29 46 -62 66 -84 52 -14 -8
-14 -199 0 -263 11 -52 31 -535 32 -762 0 -105 -3 -144 -17 -175 -27 -63 -32
-145 -10 -186 9 -19 23 -65 29 -102 16 -87 9 -358 -10 -402 -8 -22 -33 -44
-73 -69 -98 -59 -129 -135 -73 -177 l30 -22 -19 -26 c-15 -21 -21 -58 -31
-202 -11 -171 -11 -178 9 -215 11 -22 25 -74 31 -118 l11 -79 -36 -54 c-35
-53 -36 -54 -51 -33 -9 13 -23 20 -36 18 -20 -3 -23 -11 -29 -88 -9 -115 -17
-168 -34 -212 -15 -42 -118 -224 -140 -249 -14 -15 -44 -94 -68 -180 -8 -26
-31 -73 -53 -105 -22 -33 -45 -74 -51 -92 -30 -80 -35 -92 -42 -92 -4 0 -10
27 -13 60 -6 69 -34 125 -63 125 -17 0 -19 -7 -18 -59 2 -64 0 -63 -46 25 -28
55 -30 64 -40 270 -14 286 -40 434 -76 434 -18 0 -19 -7 -16 -100 2 -55 5
-116 8 -136 4 -28 1 -38 -11 -43 -28 -10 -45 54 -55 212 -5 81 -15 226 -21
322 -6 96 -16 193 -21 215 -5 22 -15 64 -22 92 -13 59 -27 78 -50 70 -18 -7
-22 -70 -7 -127 5 -19 12 -96 14 -170 5 -125 5 -131 -8 -85 -7 28 -20 70 -29
94 -10 27 -16 75 -16 130 0 47 -5 102 -11 121 -14 46 -27 168 -39 370 -5 91
-19 233 -30 315 -12 83 -24 206 -27 275 -3 69 -10 133 -15 143 -11 21 -44 22
-52 1 -12 -31 -1 -255 24 -474 5 -47 12 -148 15 -225 5 -128 4 -137 -10 -109
-8 18 -19 58 -25 90 -5 33 -17 91 -25 129 -8 39 -20 102 -26 140 -5 39 -17
111 -27 160 -19 103 -19 301 0 378 11 43 10 56 -9 110 -26 74 -37 192 -38 387
-1 264 -16 704 -27 774 -8 53 -7 74 3 92 15 30 25 30 40 3 13 -26 44 -138 54
-195 10 -66 26 -475 32 -816 4 -262 7 -319 19 -329 12 -10 18 -9 32 5 15 15
17 38 15 189 -2 95 -8 269 -13 387 -6 118 -15 298 -20 400 -5 102 -13 201 -19
220 -15 49 -14 159 2 165 43 16 59 10 72 -30 18 -53 38 -343 40 -580 0 -104 4
-200 8 -212 10 -28 43 -39 64 -22 17 14 15 89 -8 334 -6 61 -12 182 -12 270
-2 135 1 167 17 207 l19 47 17 -22 c13 -16 20 -47 23 -97 32 -490 40 -544 80
-538 22 3 22 6 19 158 -2 85 -7 182 -12 215 -5 33 -7 112 -3 177 l6 118 28 0
c31 0 43 -22 41 -80 -2 -44 22 -80 53 -80 29 0 40 27 25 64 -14 37 -13 99 2
114 8 8 56 12 148 12 94 0 154 5 195 16 33 9 71 16 85 15 14 -1 45 7 70 18 25
10 70 23 101 29 33 6 74 23 100 41 39 27 52 30 116 31 39 0 79 -3 88 -6z
m-3153 -126 c32 -17 79 -49 104 -71 37 -33 45 -45 42 -70 -2 -18 -11 -34 -23
-41 -11 -6 -59 -34 -106 -63 -91 -55 -107 -61 -127 -41 -18 18 -14 37 13 62
29 27 26 47 -11 71 -31 20 -30 38 2 68 l25 24 -25 17 c-43 27 -28 76 22 76 13
0 51 -14 84 -32z m1238 -192 c0 -50 3 -190 6 -311 5 -205 4 -218 -11 -192 -9
15 -19 51 -22 80 -3 29 -12 77 -19 107 -18 69 -19 401 -3 433 l12 21 18 -23
c16 -19 19 -40 19 -115z m140 112 c13 -32 30 -357 30 -573 0 -121 5 -203 15
-250 8 -39 14 -115 14 -170 l-1 -100 -17 70 c-10 39 -26 94 -35 124 -9 30 -16
82 -16 116 0 33 -9 103 -21 155 -14 68 -20 128 -19 210 0 63 -2 178 -5 255 -5
100 -3 146 6 162 16 29 37 29 49 1z m139 -11 c26 -32 42 -198 52 -527 5 -184
12 -409 15 -500 7 -163 -6 -302 -27 -316 -5 -3 -9 19 -9 50 0 30 -5 58 -10 61
-7 4 -10 55 -9 133 0 70 -4 161 -10 202 -6 41 -13 98 -17 125 -3 28 -9 59 -14
70 -10 24 -32 504 -23 518 3 5 5 43 5 84 -2 91 18 134 47 100z m-439 -60 c14
-65 3 -256 -13 -217 -14 37 -22 285 -9 276 6 -3 15 -30 22 -59z m2708 21 c7
-7 12 -22 12 -33 0 -26 33 -57 78 -75 37 -14 50 -49 33 -86 -9 -19 -18 -24
-50 -24 -34 0 -44 -5 -67 -35 -29 -39 -48 -43 -76 -18 -31 28 -21 227 14 271
13 15 40 16 56 0z m-3671 -252 c27 -9 39 -42 23 -61 -9 -11 -34 -15 -86 -15
l-73 0 -3 -76 c-2 -59 -7 -79 -20 -88 -13 -8 -22 -6 -37 8 -19 17 -21 31 -21
116 0 104 5 115 50 122 39 5 144 1 167 -6z m3737 -99 c7 -11 6 -29 -7 -64 -11
-31 -14 -62 -11 -89 5 -35 3 -44 -17 -58 -22 -15 -23 -18 -11 -62 14 -53 5
-74 -33 -74 -26 0 -75 51 -75 78 0 9 -7 26 -15 36 -8 11 -15 31 -15 45 0 50
132 219 163 208 6 -2 15 -11 21 -20z m-3806 -295 c57 -55 82 -86 82 -102 0
-28 -107 -134 -151 -149 -51 -18 -82 12 -55 53 16 25 11 70 -10 87 -21 17 -17
45 8 61 21 14 21 15 5 48 -18 35 -22 62 -10 73 20 21 56 1 131 -71z m3720
-134 c8 -8 12 -50 12 -121 l0 -109 -34 -32 c-29 -29 -41 -34 -107 -39 -61 -5
-76 -4 -86 10 -21 27 10 69 73 99 63 30 84 63 84 137 0 42 13 67 35 67 6 0 16
-5 23 -12z m-727 -1451 c-16 -16 -20 -5 -8 23 9 22 11 23 14 6 3 -10 0 -23 -6
-29z m96 -334 c-7 -41 -20 -59 -36 -49 -26 16 -9 86 21 86 18 0 20 -5 15 -37z
m-57 -38 c0 -16 -6 -25 -15 -25 -15 0 -21 31 -8 43 13 14 23 6 23 -18z m-12
-83 c8 -6 10 -22 6 -55 -7 -52 -25 -75 -41 -55 -12 15 -23 104 -15 113 8 7 35
6 50 -3z m122 -163 c0 -26 -3 -30 -22 -27 -26 3 -37 36 -16 49 25 17 38 9 38
-22z m-60 -204 c0 -8 -5 -17 -11 -20 -6 -4 -24 -25 -40 -47 -25 -35 -29 -50
-29 -104 0 -46 -5 -67 -17 -80 -17 -17 -18 -12 -21 92 -3 104 -2 110 20 127
13 9 33 26 46 37 24 20 52 17 52 -5z"/>
<path d="M5247 3963 c-8 -14 -6 -436 2 -475 5 -22 5 -40 -2 -47 -5 -5 -6 -18
-2 -28 5 -10 9 -73 9 -140 1 -145 10 -162 57 -117 29 27 30 32 24 80 -3 29 -6
164 -6 300 0 137 -4 263 -9 279 -5 17 -16 57 -23 90 -9 39 -20 61 -30 63 -8 2
-17 -1 -20 -5z"/>
<path d="M4890 3704 c-18 -20 -2 -67 24 -72 34 -7 49 44 20 72 -19 20 -28 20
-44 0z"/>
<path d="M5352 3068 c-28 -28 -2 -88 33 -74 12 4 15 16 13 43 -3 40 -23 54
-46 31z"/>
<path d="M5271 2798 c-9 -23 2 -58 18 -58 16 0 33 29 29 52 -4 31 -36 36 -47
6z"/>
<path d="M5103 2769 c-14 -14 -6 -70 11 -81 28 -19 50 54 24 80 -15 15 -21 15
-35 1z"/>
<path d="M4267 2553 c-11 -10 -8 -142 3 -164 14 -25 37 -24 51 3 14 25 5 134
-12 154 -12 15 -32 18 -42 7z"/>
<path d="M5105 2530 c-13 -22 -12 -205 2 -237 16 -40 40 -43 49 -7 11 41 -1
221 -16 239 -14 17 -26 19 -35 5z"/>
<path d="M5121 2016 c-7 -8 -11 -30 -9 -48 2 -25 8 -33 23 -33 16 0 21 8 23
36 4 42 -18 68 -37 45z"/>
<path d="M5124 1876 c-9 -24 4 -48 23 -44 12 2 18 12 18 28 0 29 -32 41 -41
16z"/>
<path d="M4467 1764 c-10 -10 -9 -42 2 -48 18 -11 42 6 39 28 -3 21 -28 33
-41 20z"/>
<path d="M4621 1517 c-15 -15 -14 -32 5 -47 12 -11 18 -11 30 2 16 16 10 43
-11 51 -7 3 -18 0 -24 -6z"/>
<path d="M4644 1075 c-4 -8 1 -27 11 -41 13 -20 19 -23 31 -13 18 15 18 34 -2
53 -19 20 -33 20 -40 1z"/>
<path d="M5502 6862 c-38 -32 -41 -59 -9 -71 42 -16 94 30 85 75 -5 29 -39 27
-76 -4z"/>
<path d="M5220 6683 c-8 -3 -24 -13 -35 -23 -11 -9 -47 -32 -80 -50 -91 -50
-110 -83 -55 -95 25 -5 45 1 103 35 107 61 141 92 133 118 -7 22 -32 27 -66
15z"/>
<path d="M5386 6475 c-19 -19 -20 -29 -6 -56 16 -29 58 -25 72 7 22 47 -30 85
-66 49z"/>
<path d="M4781 6456 c-13 -14 -33 -26 -45 -28 -27 -4 -35 -45 -10 -55 9 -3 25
-1 35 5 10 7 29 12 42 12 37 0 69 28 65 58 -4 39 -54 43 -87 8z"/>
<path d="M5184 6356 c-20 -15 -14 -43 12 -53 20 -8 47 19 39 39 -9 23 -30 29
-51 14z"/>
<path d="M5466 6334 c-29 -29 17 -80 49 -54 19 16 19 35 -1 54 -19 20 -29 20
-48 0z"/>
<path d="M4935 6264 c-9 -10 -13 -23 -9 -33 3 -9 15 -38 26 -66 10 -27 34 -81
53 -120 19 -38 50 -108 68 -155 70 -175 89 -216 121 -270 38 -65 71 -78 82
-33 6 22 -1 43 -31 97 -20 39 -48 97 -60 130 -45 117 -76 192 -115 271 -21 44
-43 99 -50 122 -9 37 -40 73 -62 73 -3 0 -14 -7 -23 -16z"/>
<path d="M5222 6238 c-18 -18 -15 -38 14 -75 49 -65 108 -28 65 41 -28 45 -56
57 -79 34z"/>
<path d="M4816 6219 c-13 -20 -12 -26 14 -73 15 -28 38 -82 51 -121 12 -38 33
-87 46 -107 13 -21 23 -44 23 -51 0 -7 4 -17 9 -22 5 -6 16 -35 26 -65 30 -96
87 -229 106 -246 20 -18 46 -13 55 11 4 8 -12 59 -34 113 -22 53 -50 129 -62
167 -13 39 -30 84 -40 100 -10 17 -33 76 -51 133 -49 156 -103 217 -143 161z"/>
<path d="M5090 6224 c-10 -11 -11 -23 -4 -42 7 -21 16 -27 39 -27 24 0 31 5
33 23 4 25 -23 62 -43 62 -7 0 -18 -7 -25 -16z"/>
<path d="M4690 6165 c-16 -19 -16 -19 92 -280 11 -27 40 -104 65 -170 25 -66
57 -143 71 -172 37 -73 81 -80 82 -13 0 14 -6 34 -13 45 -20 29 -62 154 -97
285 -35 128 -90 273 -116 301 -20 23 -67 25 -84 4z"/>
<path d="M5133 6104 c-8 -22 36 -102 60 -110 27 -9 51 19 44 49 -16 61 -88
103 -104 61z"/>
<path d="M5306 5774 c-19 -19 -20 -9 7 -74 49 -118 74 -148 109 -129 23 12 23
36 0 74 -10 17 -26 51 -36 78 -10 26 -26 52 -36 57 -24 13 -26 13 -44 -6z"/>
</g>
</svg>
