<svg id="Capa_1" data-name="Capa 1" xmlns="http://www.w3.org/2000/svg" viewBox="0 0 7860.32 1403.55"><defs><style>.cls-1{fill:#e24229;}.cls-2{fill:#020202;}.cls-3{fill:#d0cccb;}.cls-4{fill:#02bf64;}</style></defs><path class="cls-1" d="M-2928.43,1449.78c-2.12-1.7-2-3.74-2.17-5.67q-5-56.74-9.91-113.48-4.5-50.78-9.14-101.52c-.23-2.48-.6-5-.94-7.43-.54-3.9-2.4-6.18-6.7-6.55-21.4-1.85-42.79-3.89-64.18-5.85q-62-5.67-123.89-11.29c-6.47-.58-13-.92-19.44-1.4-6.94-.52-13.88-1-20.56-3.26.21-5.62,3.19-9.8,5.25-14.27q42.71-92.52,85.51-185c7.88-17.07,8.51-13.79-6.72-24.55Q-3184,911.13-3266.79,853c-3.68-2.58-7.36-5.17-10.83-8-1.89-1.54-1.47-3.68.32-5.05,4.37-3.33,8.87-6.5,13.36-9.67q80.28-56.55,160.56-113.11c18.36-13,16.83-8.41,7.27-29.21q-41.64-90.52-83.67-180.88c-1.68-3.63-3.4-7.24-4.95-10.92-1.22-2.88-.18-5.05,2.63-5.59a74.1,74.1,0,0,1,7.41-1q57.49-5,115-10,50-4.43,100-9.05c7.36-.68,8.63-1.69,9.44-8.9,1.34-11.92,2.32-23.87,3.36-35.82,2.4-27.37,4.66-54.76,7.12-82.13q4.83-53.71,9.87-107.41c5.21-2.13,8.8,1.36,12.66,3.14q83.7,38.57,167.32,77.31c10.43,4.82,20.9,9.54,31.32,14.38,2.7,1.25,4.78.69,6.46-1.62,2.35-3.23,4.66-6.49,7-9.76q58.74-83.34,117.47-166.67c2.85-4,5.85-8,8.75-11.9,5.66,2.42,7.52,7.39,10.33,11.36q57.94,82.07,115.7,164.24c1.15,1.64,2.32,3.26,3.48,4.89,9.52,13.47,6.87,11.92,21.07,5.38q92.54-42.66,185-85.55c4.9-2.26,10-4.14,15.53-6.45,2.92,4.78,2.18,9.35,2.79,13.56.64,4.45,1.22,8.91,1.63,13.39q7.41,81.35,14.76,162.7c1,11.45,2.31,22.88,3,34.34.68,10.91,1.79,11,12.72,11.81,9,.67,17.91,1.71,26.87,2.49q58.23,5.12,116.47,10.17,35.09,3.08,70.17,6.29a35.58,35.58,0,0,1,5.88,1,3.27,3.27,0,0,1,2.5,4.53c-1.57,4.2-3.47,8.28-5.36,12.35q-42.75,92.49-85.54,185c-1.47,3.17-3,6.31-4.37,9.53a5,5,0,0,0,1.8,6.57c3.23,2.35,6.48,4.69,9.74,7q82.74,58.27,165.48,116.55c3.67,2.59,7.32,5.23,10.8,8.07,1.9,1.55,1.44,3.7-.26,5.07-3.5,2.82-7.17,5.42-10.85,8q-82.72,58.29-165.47,116.57c-15.36,10.83-13.94,7.46-6,24.61q42.32,91.88,84.86,183.64c2.08,4.48,4,9.05,6.21,14.26-5.3,3.38-10.88,3.19-16,3.69-26.36,2.54-52.76,4.65-79.13,7-27.87,2.52-55.72,5.2-83.58,7.75-15.92,1.46-31.86,2.76-47.78,4.19-7.81.7-8,.81-8.82,9q-4.31,44.76-8.4,89.53t-8.23,89.56c-1.18,12.93-2.32,25.87-3.51,38.81-.22,2.42,0,5-1.9,7.16-5.33,1.38-9.42-2.27-13.78-4.27q-78.28-36-156.44-72.29c-12.69-5.88-25.37-11.77-38.11-17.54-4.76-2.16-6-1.89-8.85,2-3.89,5.2-7.57,10.56-11.31,15.87q-56.55,80.29-113.1,160.58c-2.56,3.63-5.34,7.1-8.41,11.17-4.49-2.63-6.32-6.78-8.76-10.23q-59.68-84.51-119.26-169.08c-10.64-15.07-7-13.89-23.16-6.44q-93.19,43-186.35,86.15C-2919.32,1447-2923.42,1450.39-2928.43,1449.78Zm551.23-957.43c-5.21,2.26-10.26,4.33-15.21,6.63q-47.61,22-95.16,44.13c-11.5,5.36-11.43,5.71-19.08-5.24Q-2538,493-2569.71,448.42c-2.51-3.56-4.13-8.07-9.29-9.88-2.6,3.54-5.32,7.09-7.9,10.74q-29.8,42.27-59.57,84.57c-2.31,3.26-4.74,6.44-7,9.73-2.42,3.53-5.49,3.89-9.12,2.19-3.17-1.48-6.35-2.93-9.52-4.4Q-2719,519.64-2765.95,498c-4.44-2-8.54-5.26-14.86-4.95-1,9.31-2.11,18.64-3,28-3,32.83-5.95,65.68-9,98.51-.65,7.07-.77,7.39-8,8.1-29.83,2.91-59.69,5.59-89.53,8.41-12.3,1.15-24.58,2.42-36.63,3.61-1.41,5.91,1.94,9.51,3.74,13.44,15.18,33.15,30.58,66.2,45.8,99.34,5.4,11.75,6.23,10.8-5.4,19q-46,32.39-91.92,64.76c-2.64,1.87-6.63,2.78-6.55,7.94,2.85,2.15,5.94,4.59,9.15,6.86q44.71,31.53,89.5,63c11.5,8,10.5,7.44,5.16,19q-22.25,48.32-44.67,96.56c-1.68,3.62-3.46,7.21-5,10.9-1.42,3.46,0,5.5,4.06,5.9q18.64,1.79,37.32,3.39,40.31,3.51,80.63,7a74,74,0,0,1,7.41,1.11c2.68.52,4.39,2.07,4.67,5,1,10,2,19.89,2.91,29.84,2.38,26.87,4.66,53.76,7,80.63.45,5,1.16,9.93,1.86,14.88.48,3.37,2.1,4.54,5,3.46,3.74-1.4,7.42-3,11-4.64q46.24-21.37,92.45-42.83c2.72-1.26,5.42-2.57,8.15-3.79,7.66-3.39,7.69-3.39,12.26,2.75,1.79,2.41,3.48,4.89,5.21,7.34q29.32,41.7,58.69,83.36c3.09,4.36,5.63,9.28,10,12.45,5.38-2.45,7.26-7.38,10.09-11.37q30.36-42.8,60.48-85.76c2-2.86,4-5.72,6.11-8.54,1.62-2.21,3.62-3.23,6.39-1.95,4.08,1.89,8.22,3.65,12.3,5.54q45.54,21.1,91.1,42.2c4.88,2.25,9.45,5.59,15.17,5.55,3.79-4.27,3-9.5,3.45-14.37q4.93-55.23,9.74-110.48c.72-8.13,1.53-8.86,10-10,1.48-.21,3-.31,4.47-.44q56-4.92,112-9.85a45.08,45.08,0,0,0,5.92-.82c2.5-.55,3-2.65,2.37-4.59-1.3-3.76-3-7.4-4.63-11q-21.93-47.64-43.93-95.25c-1.46-3.17-2.94-6.35-4.44-9.5-1.28-2.68-.5-4.89,1.68-6.56,3.17-2.43,6.46-4.71,9.73-7l84.58-59.56c3.26-2.3,6.56-4.57,9.66-7.08,1.71-1.39,2.16-3.53.29-5.09-3.06-2.55-6.34-4.85-9.61-7.15q-42.89-30.24-85.77-60.48c-4-2.84-8.82-4.83-11.57-10,1.68-3.81,3.41-7.91,5.28-12,15.06-32.65,30.2-65.28,45.16-98,1.78-3.9,5.21-7.62,3-12.7a35.26,35.26,0,0,0-4.3-.92c-23.88-2.17-47.78-4.24-71.65-6.45q-25.38-2.36-50.71-5c-6-.65-6.75-1.51-7.32-7.36-1.21-12.43-2.27-24.88-3.35-37.32q-3.49-40.32-7-80.64C-2374,499.27-2374,496.19-2377.2,492.35Z" transform="translate(3278.85 -141.05)"/><path class="cls-2" d="M882,1479c-24.46-1.47-49-.72-73.42-.69-45.48.07-90.9,2.47-136.33,4.2a207,207,0,0,0-45.7,6.65,210.11,210.11,0,0,1-105.31.75c-43.58-10.73-71.08-38.7-83.07-81.84a169.51,169.51,0,0,1-6.44-41.35c-.09-3.47-.6-6.94-.92-10.4.8-1,.67-2.3-.51-2.38s-1.44,1.21-.85,2.34c-4.12.81-4.73,4.79-6.55,7.54-18.9,28.52-40.83,54.39-67.71,75.69a250.63,250.63,0,0,1-119.38,52.25c-43.08,6.63-85.77,5.33-127.67-7-47.47-14-85-41.33-109.73-84.9-14-24.71-21.47-51.61-24.26-79.7-3-30-1.3-59.88,6.34-89.27,8.15-31.32,24.92-57.53,47.17-80.54C47.29,1130,70,1113.87,95,1100.79a727.09,727.09,0,0,1,114.68-47.56c37.05-11.93,74.09-23.93,111-36.27,22.77-7.62,44.82-17,65.35-29.62a176.13,176.13,0,0,0,19.66-13.65C422.06,960.24,431,942.56,431,921.48c-.06-46.47,2.1-93-1.75-139.41a199.82,199.82,0,0,0-9.14-45.42,123.6,123.6,0,0,0-18.56-35.73,98.59,98.59,0,0,0-47.41-35.17A212,212,0,0,0,294,654.29c-36.27-1.8-71.83,3.23-106.79,12.43a125.17,125.17,0,0,0-63,38.59c-4.62,5.21-4.26,7.09,2.28,9.32a102.94,102.94,0,0,1,38.1,23.12c17.89,16.94,27.53,37.79,29.76,62.07a111.44,111.44,0,0,1-1.55,32.82c-6.28,30.64-24.59,50.8-53.43,61.41-22.72,8.35-46.1,8.43-69.31,2.08a69,69,0,0,1-39.41-28.25c-15.59-22.67-22.17-47.8-20-75.2a157.82,157.82,0,0,1,2.39-19.32,95.56,95.56,0,0,1,21.74-43.78,263,263,0,0,1,81.18-63.09,414.07,414.07,0,0,1,150.29-43.08,556.35,556.35,0,0,1,68.89-2.07c35.08,1.19,69.68,5.68,103,17.67,49.58,17.87,87.53,49.24,111.76,96.44,11.09,21.6,16.21,45,20.13,68.71,6.14,37.09,8,74.51,8,112q.1,222,.06,444c0,14-.13,28,3.48,41.72.38,1.45.49,3,.89,4.41,6.73,24.13,22.2,35.51,47.29,35a76.19,76.19,0,0,0,39.79-11.6c10.57-6.62,20.73-13.9,31.68-21.3,8.59,7.26,12.56,18.3,19.7,28.06,16-6,27.3-17.19,34.73-32.5,7.53-15.52,10.5-32.23,11.94-49.23.64-7.46.63-15,.63-22.48q0-466.47.05-932.94c0-20.57-1.45-40.95-6.26-61-1.28-5.33-2.84-10.6-4.52-15.82C746,286.4,720.43,266.9,683.66,261a213.4,213.4,0,0,0-32.81-3.14c-5,0-5.93-1.13-6-6.33-.14-8.92,0-17.83,0-25.49,1.45-1.59,1.72-2.08,2.13-2.26a3.16,3.16,0,0,1,1.48-.1c14.46.91,28.92,1.92,43.39,2.73,35,1.95,69.89,2.25,104.87-.22,38-2.69,75.46-8.17,112.07-18.91,1.86-.55,3.86-.94,6,.6,1.73,5,.77,10.5.77,15.92q.09,384.74.19,769.46c0,6.67-3.56,15.33,2.34,19.68,5,3.69,12.49-.85,18.82-1.91,44.76-7.49,83.28-27,114.84-59.9q65.4-68.19,131-136.26A265.88,265.88,0,0,0,1211.07,780c5.6-8.29,10.55-16.93,13.86-26.46,8.68-25,.18-47.27-23-59.73-8.4-4.51-17.46-7.37-26.64-9.8-18-4.75-36.35-6.51-54.89-7-3-.08-6-.14-9-.49a4.07,4.07,0,0,1-3.67-4,49.73,49.73,0,0,1-.21-6c.62-26.23-4.57-22.3,21.83-21.48,39,1.21,77.9,3.57,116.86,4.77,36.47,1.13,73,1.32,109.44-.71,23-1.27,45.93-1.94,68.83-4.18,9-.89,9.88-1,9.66,9.68-.09,4.5.06,9,0,13.5-.17,8.3-.33,8.7-8,9.46a175.31,175.31,0,0,0-26.44,5.09c-33.1,8.54-61.86,25.22-87.42,47.5-10.91,9.51-21.22,19.77-31.23,30.23q-91.27,95.35-182.24,191c-3,3.19-5.87,6.61-9,10.1,2.91,4.13,5.43,7.84,8.07,11.46q140.83,193.26,281.7,386.51a485.39,485.39,0,0,0,43.25,51.72c18.63,19.25,40.66,32,67,37.27,7.67,1.54,7.88,1.78,7.77,9.6-.11,8.37,1,16.85-1,25.51-13.51-.8-26.38-1.38-39.23-2.36-41.42-3.18-82.89-3.34-124.39-2.94-47.5.47-94.93,2.55-142.33,5.6-4.2.27-5.73-.89-5.85-4.73-.18-6-.14-12-.09-18,.08-11,.1-11.09,11-12.1a65.3,65.3,0,0,0,20.2-5.22,33.82,33.82,0,0,0,15-12.09c4.43-6.55,6-13.47,3.13-21.29a70.8,70.8,0,0,0-8.6-15.7q-88.53-129.24-177.06-258.48c-7.34-10.71-15-21.22-22.68-31.69-3.25-4.42-7-8.45-10.47-12.73-24.12-29.9-56.65-41.22-93.73-42.46-4.09-.13-5.7,1.2-5.87,4.86-.16,3.49-.1,7-.1,10.49q0,131.25,0,262.49a304.81,304.81,0,0,0,5.21,58.11c6.71,34.71,28.08,54,62,60.43a176.38,176.38,0,0,0,34.24,3.56c5.06,0,6,1.09,6.1,6.28.14,8.92,0,17.85,0,25.52-2.89,3.71-5.52,2.74-7.87,2.59-40.41-2.42-80.83-4.65-121.33-5.07-2,0-4,.22-6,.34A5.07,5.07,0,0,0,882,1479ZM429.1,991.82a17.69,17.69,0,0,0-3.45,2.46c-16,18.47-35.77,31.77-57.68,42-23,10.79-46.1,21.54-69.42,31.71-30.24,13.18-59.65,27.88-87.64,45.39a212.18,212.18,0,0,0-40.86,32.66c-18.53,19.28-33.85,40.68-42.5,66.28-11.07,32.78-12.91,66.53-9.49,100.63a141.47,141.47,0,0,0,10.84,41.89c14.34,33.39,37.74,57.22,72.73,68.65a136.89,136.89,0,0,0,41.26,6.58c39.7.43,75.73-11,108.16-33.89,30.3-21.36,53.52-49.2,73.83-79.83a38.09,38.09,0,0,0,6.54-22.34c-.28-55-.14-109.92-.14-164.88,0-42,.05-83.93-.09-125.9C431.18,999.52,432.82,995.28,429.1,991.82Z" transform="translate(3278.85 -141.05)"/><path class="cls-2" d="M2265,648c31.53,1.12,62.72-2.37,93.75-7.43A411.45,411.45,0,0,0,2414.08,628a33.58,33.58,0,0,1,5.79-.73c2.14,5.15,1.21,10.18,1.21,15.08q.12,74.8.07,149.61c0,5,.25,10,.38,14.94a66.43,66.43,0,0,0-.7,8.53c.1,2.5-1.15,5.52,2.13,7.8,2.35-3.15,4.45-6.12,4.22-10.18,11.1-22.34,22.55-44.48,36.18-65.46,22.56-34.7,49.76-65,83.22-89.56,36.44-26.79,77.22-39.18,122.29-36.74,38.25,2.06,72.36,15.06,99.84,42.3,35.14,34.85,44.88,76.55,30.77,123.87-2.59,8.67-7,16.47-11.78,24.15-31.8,51.47-95.32,49.57-130,23.71-16.9-12.62-26.92-29.21-29.92-50a109.71,109.71,0,0,1-.66-29.86,83.75,83.75,0,0,1,17.75-42.22c10-12.64,21.77-23.3,35.71-33-4.12-7.92-10.85-11.56-18.3-14.16-7.21-2.52-14.72-2.57-22.25-2.13-32.83,1.91-62.33,13-88.78,32.41C2523.54,716.8,2501,742,2483,771.21a426.39,426.39,0,0,0-58,153.09,246.8,246.8,0,0,0-3.82,41.76q.13,177,0,353.94a170.69,170.69,0,0,0,8.5,54.54c8.38,25,24.3,43.11,48.52,54,20.21,9.13,41.34,14.61,63.22,17.65a337.12,337.12,0,0,0,46.33,3.13c5,0,6,1.23,6.32,6.25a33.8,33.8,0,0,1,0,4.5c-.52,7.39,1.32,14.91-1.16,22.2-7.18,4-14.62.77-21.86.5-112.42-4.23-224.85-6.58-337.33-2.88-24.47.8-48.91,2.4-73.36,3.68-4.41.23-9.24,1.87-11-4.46-.14-.51-1.75-1-2.56-.83a18.18,18.18,0,0,0-4.2,1.55c-43.35,19.6-88.31,20.34-133.42,9-47.77-12-73.33-45.42-83.23-92.39-2.6-12.3-2.83-24.79-4.27-37.18,1-1.81,1.29-4.37-.38-5-1.5-.59-3.44,1.28-4.12,3.3a5.76,5.76,0,0,0-.12,1.45c-12.73,17.91-25.36,35.86-40.46,52-34.32,36.57-75.14,62.34-123.78,75.28-28.21,7.5-56.94,10.08-86.08,9-26.12-1-51.81-4.45-76.48-13.24-70.4-25.09-111.19-75-123.51-148.48-4.75-28.35-4.18-56.74.48-85,6.21-37.68,23.54-69.67,49.94-97a264,264,0,0,1,68.35-50.61,726.68,726.68,0,0,1,116.08-48q54.92-17.51,109.55-35.86a337,337,0,0,0,68-31c8.58-5.18,16.71-11,23.6-18.34,9.83-10.49,16.34-22.64,17.89-37.1a193.93,193.93,0,0,0,1.37-19.41c.15-29.49.4-59,0-88.47-.37-25-1.19-50-7.86-74.32a166.65,166.65,0,0,0-7.53-22.69q-22.86-52.34-78.68-65.24c-29-6.67-58.3-7.91-87.88-5a402,402,0,0,0-60.41,10.73c-24.25,6.26-45.29,18.21-62.45,36.65a61.06,61.06,0,0,0-4.65,5.84c-1.61,2.24-.21,3.87,1.65,4.72,3.16,1.44,6.6,2.27,9.78,3.69,27.81,12.48,47.8,32.24,56.93,61.86a105.64,105.64,0,0,1,1.07,60.65c-7.41,26.35-24.84,44.23-50.15,53.83-23.59,9-48,9.24-72.15,2.28-16.4-4.72-29.34-14.63-38.93-28.85-15.72-23.3-21.53-49-19.39-76.86,2.12-27.67,13.43-50.61,32.88-70.26,28.58-28.87,61.84-50.34,99.26-65.72a425.28,425.28,0,0,1,126-30.88c35.5-3,70.89-3,106.22,1.21,26.87,3.22,53.07,9.44,77.92,20.51,48.22,21.47,83.47,55.79,103.34,105.1,7.32,18.16,10.95,37.31,14.14,56.54,6.33,38.11,7.52,76.57,7.57,115.06q.26,215.19.12,430.38c0,12,.54,24,1.11,36a79.15,79.15,0,0,0,6.6,27.55c6.45,15,17.85,23.68,34.28,25.34,15.82,1.6,31-.84,44.87-8.67,8.25-4.65,16-10.11,24-15.34,4.1-2.72,8-5.73,12.44-8.94a107.08,107.08,0,0,1,17.06,26.37c.32.71-.38,1.88-.6,2.83-3.62,1.27-6.83,3-8.24,7.41a17.89,17.89,0,0,0,10.84-2.41c4.25-1.41,8.56-2.66,12.74-4.25,20.46-7.78,33.84-22.39,41-42.88,5.68-16.18,8-33,8.77-50,.37-8,.2-16,.2-24q0-246.66,0-493.31c0-22.56-1.15-44.94-6-67A141.67,141.67,0,0,0,2256,726.89c-9.26-18.19-23.46-30.7-42.4-38.2-16.51-6.54-33.84-8.35-51.27-9.82-2.49-.21-5-.17-7.49-.29-3-.14-4.44-1.79-4.46-4.71-.05-6-.06-12-.1-18-.1-12.07-.3-11.7,11.43-10.86,22.93,1.64,45.84,3.52,68.86,3.35,2.49,0,5-.24,7.47-.36a5.09,5.09,0,0,0,6,0h15A5.12,5.12,0,0,0,2265,648Zm-342.92,500.34V1009c0-4,.06-8-.12-12-.08-1.77.44-4.09-2.42-4.58-1.86-.31-2.61,1.12-3.49,2.14-16,18.52-35.86,31.65-57.73,42-22.56,10.63-45.18,21.16-68,31.13-23.34,10.19-46.37,21-68.45,33.67-16.45,9.47-32.79,19.14-47.15,31.72-24.77,21.72-45,46.77-56,78.27-12,34.17-13.46,69.44-9.48,105a136.73,136.73,0,0,0,14.21,47.07c15,29.34,37.53,50.16,69.2,60.29a138.55,138.55,0,0,0,41.28,6.48c39.7.33,75.71-11.17,108.09-34.1,29.81-21.11,52.78-48.49,72.92-78.64a42.36,42.36,0,0,0,7.35-25.16C1921.91,1244.26,1922.08,1196.3,1922.08,1148.34Z" transform="translate(3278.85 -141.05)"/><path class="cls-2" d="M-632.76,804.13c3.87-8.08,7.69-16.19,11.6-24.25a331.36,331.36,0,0,1,41.66-65.64c26.72-32.61,61.19-53.94,99.73-69.53,51.56-20.86,105-27.5,160.18-21.62,21.48,2.28,42.53,6.26,62.65,14.1,62,24.14,100,69.29,115.64,133.56,5.21,21.39,7.91,43.2,9.55,65.17,2.16,29,2.4,57.92,2.39,86.92q-.07,201.75,0,403.49c0,16-.2,32,3.23,47.78.74,3.41,1.55,6.8,2.28,10.22C-117,1416-97,1434.71-66.26,1442.66a211.29,211.29,0,0,0,53.41,6.67c6.24,0,6.89.72,7,6.94.1,8,0,16-.22,24-.05,2.24-1.39,3.75-3.76,3.63-5.48-.27-11-.78-16.44-1.06-92.41-4.68-184.86-6.37-277.35-2.93-24.47.91-48.91,2.6-73.36,3.95-6.16.34-7.05-.29-7.18-6.39q-.22-10.5,0-21c.13-6.33.72-7.1,6.77-7.12a167.46,167.46,0,0,0,31.28-3.19,110.2,110.2,0,0,0,27-8.69,60.83,60.83,0,0,0,30.52-31.63,132.3,132.3,0,0,0,9.65-37.59,403.63,403.63,0,0,0,2.35-46.39q-.12-198.75-.05-397.49c0-23.49.18-47-.14-70.49-.4-28.52-2.75-56.89-8.23-84.93a137.74,137.74,0,0,0-11.56-35.49c-15-30-38.15-49.69-71.62-55.81-51-9.31-99.54-3-144.4,24.13-29.58,17.9-53.21,42.09-72,71-23.52,36.09-37.78,75.73-45.51,118-5.06,27.67-6.54,55.55-6.54,83.57q0,177,0,354c0,21,.3,42,6.37,62.41a159.86,159.86,0,0,0,6,16.9c5.71,13.46,15.58,23,28.6,29.44,14.58,7.26,30.24,10.1,46.21,11.69,4.46.45,9,.34,13.48.59,5.89.32,6.67,1,6.82,7.29q.24,10.5,0,21c-.13,5.6-1.5,6.65-7.55,6.23-94.86-6.59-189.81-7-284.8-3.87-26,.84-51.91,2.54-77.86,3.84a24,24,0,0,1-4.48.08c-2.11-.28-3.87-1.46-3.89-3.75-.09-9-.08-18,.1-27,0-2.21,1.81-3.51,4-3.65,3.49-.22,7-.14,10.48-.3,18-.81,35.77-3.23,53-8.91,25.2-8.3,41.3-25,48.88-50.46,5.18-17.46,6.35-35.33,7.45-53.28.18-3,0-6,0-9q0-460.48,0-921c0-20-1.11-40-5.16-59.65a201,201,0,0,0-7.1-26c-11-31.41-33.21-50.16-65.7-57.09a201.85,201.85,0,0,0-28.2-3.75c-4.49-.31-9-.65-13.45-1.1a4.6,4.6,0,0,1-4.49-4.94c-.08-8-.13-16,0-24,.07-3.75,1.64-5,5.87-4.81,18.46,1,36.9,2.29,55.36,3.22a781.42,781.42,0,0,0,95.94-.94c33.91-2.45,67.5-7.36,100.28-16.87,3.79-1.1,7.71-1.7,11.59-2.47.42-.08.94.27,2.21.66v16.16q0,280.49,0,561c0,6,.34,12,.52,18-1.35,1.63-.91,3.45-.51,5.23.09.39.6,1,.83,1,.74-.11,2-.32,2.09-.77A43.94,43.94,0,0,0-632.76,804.13Z" transform="translate(3278.85 -141.05)"/><path class="cls-2" d="M-1604.94,1341c.67-37.48,1.58-75,2-112.44.36-36,.16-72,.22-108,0-4,0-8,.15-12,0-2.16,1.08-4.26,3.21-4.29,10.48-.15,21-.06,31.44.15,2.37,0,3.17,2.31,3.41,4.27.6,5,.92,9.94,1.39,14.91,5.76,62,18.43,122.39,41.89,180.25,16.75,41.32,41.07,77.48,73.69,108.1,30.76,28.86,67.19,46.18,108.08,55,31.55,6.8,63.49,8.31,95.46,5.62,36.86-3.1,71.69-13.74,102.5-34.7,47.81-32.53,74.22-78.55,82.18-135.38,3.55-25.3,4.31-50.67,1.19-76.22a208.44,208.44,0,0,0-40.12-100.36c-19.76-26.71-43.11-49.88-69.24-70.28-40.61-31.72-83.41-60.26-127.37-87.09-52.48-32-103.85-65.72-153.81-101.55-43.09-30.9-80.13-67.54-109-112.27-19.52-30.27-31.89-63.25-38-98.56a368.3,368.3,0,0,1-.71-120.86c12.52-79.28,54.81-138.14,123-178.89,33.77-20.18,70.83-31.84,109.49-38.84,45.71-8.27,91.53-7.65,137.37-2.17A210.14,210.14,0,0,1-1159.26,335c19.35,9.4,38.35,19.37,56.16,31.43,12,8.16,24.92,14.74,37.74,21.47a56.27,56.27,0,0,0,23,6.15c12.07.78,20.23-4.65,24.92-15.31a109.6,109.6,0,0,0,6.17-18.43c2.43-10.19,4.22-20.54,6.25-30.83,1-5.23,1.77-6.29,6.36-6.34,9.49-.1,19,0,28.47.25a3.44,3.44,0,0,1,3.69,3.75c0,1.5,0,3-.17,4.49-8.7,102.74-8,205.73-8.07,308.7,0,3.5-.05,7-.11,10.49,0,3.09-1.88,4.47-4.73,4.49-9,.07-18,.16-27,0-4.58-.08-6.17-1.55-6.46-6.4a397.21,397.21,0,0,0-7-53.48c-9.26-46.82-23.92-91.74-48.31-133.07a276.09,276.09,0,0,0-63.21-73.52c-26.07-21.39-56.07-34.39-89-40.71-32.11-6.18-64.51-8.37-96.91-2.9-68.86,11.62-120.39,46.71-147.83,112.53-12.53,30.06-15.12,61.94-12.39,94.23a226.42,226.42,0,0,0,8.61,47.08c8.15,26.74,22.31,50,40.61,71,26.53,30.42,57.57,55.37,91.59,76.79Q-1265.18,792-1193.47,837c51.25,32.15,101.39,65.91,148.62,103.79a433.89,433.89,0,0,1,89.27,96.48,248.94,248.94,0,0,1,39.82,100.92c7.45,46.81,6.66,93.68-3.69,140C-936.36,1354-979.7,1411-1044.82,1452c-33.29,21-69.84,34-108,43.18-52.62,12.61-105.87,13.2-159.45,9.42-62.44-4.4-117.69-29.27-170.94-59.8-9.54-5.47-18.9-11.2-29.06-15.45a64.57,64.57,0,0,0-21.73-5.3c-10.64-.55-18.44,3.84-23,13.4a79.86,79.86,0,0,0-5.85,15.34c-2.84,11.62-5,23.41-7.54,35.12-1.62,7.61-1.81,8-9.9,7.89-9-.1-18,1-26.88-.86-3-8.82-.76-17.77-.19-26.55,2.61-40.44,2.67-80.91,2.33-121.39A5.1,5.1,0,0,0-1604.94,1341Z" transform="translate(3278.85 -141.05)"/><path class="cls-2" d="M4286.82,1361.63c-11.83,16.08-23.3,32.41-36.85,47.17-38.33,41.73-84.73,69.42-140.39,80.93-28.56,5.9-57.42,7-86.51,4.64-24.09-1.93-47.54-6.52-69.94-15.48-61.84-24.74-99.4-70.12-113.17-135.13-7-33.17-6.78-66.44-.43-99.75a174.21,174.21,0,0,1,39.08-81.42c22-25.91,48.32-46.12,78.36-61.79a736.18,736.18,0,0,1,116.11-48q59.16-19,118-38.93A284.13,284.13,0,0,0,4248,987.4a164.38,164.38,0,0,0,19.66-13.65c16.22-13.51,25.18-31,25.26-52.21.16-41,.28-82-.35-123a213.48,213.48,0,0,0-8.59-56.15,128.89,128.89,0,0,0-21.29-42.64,98.34,98.34,0,0,0-46.46-34,210.83,210.83,0,0,0-60.12-11.49c-36.26-1.8-71.81,3.27-106.79,12.39a120.19,120.19,0,0,0-64.78,41,3.67,3.67,0,0,0,1.43,6c2.75,1.17,5.65,2,8.39,3.19,31.32,13.56,52.33,36.07,59.83,69.92a109.43,109.43,0,0,1-.12,49c-6.82,29.2-25.19,48.26-52.92,58.31-22.75,8.25-46.12,8.35-69.3,1.88a68.16,68.16,0,0,1-38.39-27.17c-12.95-18.47-20.55-38.77-20.73-61.48-.06-9-.15-18.08,1.12-26.93A97.61,97.61,0,0,1,3898,728.2a267.05,267.05,0,0,1,77.65-60.39,412.71,412.71,0,0,1,152.92-44.42,550.56,550.56,0,0,1,68.89-2c35.07,1.22,69.68,5.71,102.93,17.75,26.11,9.45,49.77,22.91,70.3,41.87,30,27.7,48.88,61.47,57.25,101.34a540.33,540.33,0,0,1,11.69,110.11q.49,228,.33,455.92c0,9.5,0,19,.24,28.49a112.92,112.92,0,0,0,5.41,32.41c7,21.65,20.66,31.75,43.34,32.09,14.28.22,27.86-2.78,40.13-10.23,8.52-5.18,16.66-11,25-16.49,3.29-2.16,5.89-5.53,10.54-6,5.93,8.34,12.08,16.72,16.82,26.64-22.55,17.49-45.61,33.22-70.51,46.08-11.61,6-24.25,9.27-37.15,11.19-32.46,4.82-64.76,4.94-96.55-4.39-37.89-11.13-62.43-36.09-75.09-73.2-5.21-15.25-6.61-31.22-9.1-47a29,29,0,0,0-1-15.58C4289.87,1356.44,4286.51,1357.75,4286.82,1361.63Zm6.28-372.34c-31.4,30.64-38.79,35.9-77.81,54.24-18.05,8.48-36.42,16.28-54.57,24.55-15,6.82-30,13.61-44.71,20.91a390.11,390.11,0,0,0-51.68,30.14c-37.79,26.61-66.35,60.2-78.6,105.92-3.51,13.1-5.25,26.43-6.44,39.83-2.65,29.67-.5,58.9,10.48,86.92,12.4,31.62,33.37,55.29,65.16,68.53,15.87,6.61,32.59,9.48,49.66,9.75,39.13.6,74.79-10.56,107-32.8,30.49-21.07,53.89-48.76,74.3-79.32a42.71,42.71,0,0,0,7.43-25.06c-.29-95.89-.18-191.79-.18-287.68Z" transform="translate(3278.85 -141.05)"/><path class="cls-2" d="M3330.08,719c.37-3.43-1.18-5.42-2.61-7.47a103.05,103.05,0,0,0-32.93-30.18c-61-35.65-124.13-41.36-189.16-11.66-23,10.53-42.24,26.43-59.39,44.95-24.45,26.4-41.93,57-54.87,90.38a520.81,520.81,0,0,0-30.62,120.13c-6.89,51.67-8.91,103.56-7.42,155.56,1.29,45,4.86,89.78,14.05,134,7.88,37.85,20.18,74.1,38.6,108.19a262.93,262.93,0,0,0,21.66,34.13c34.1,44.9,79.37,70.79,135.18,77.47,64.83,7.76,122.38-11.19,173.9-50.1,35.46-26.78,60.89-61.62,80.33-101.2,2.35-4.78,2.84-12.11,8.44-13.24,4.21-.84,9.33,2.65,14,4.36,17.32,6.34,17.2,3.45,10.18,21.42-19.48,49.88-46.37,95.21-85.61,132.24-41.32,39-89.53,65-146.1,74a385.62,385.62,0,0,1-107.56,1.89c-76.77-9.34-141.9-42.24-196.45-96.64a356.8,356.8,0,0,1-47.64-59.62c-30.7-47.59-50.62-99.44-61.28-155A622.5,622.5,0,0,1,2794,1062.88c1.31-66.37,10.95-131.35,35.17-193.57,20-51.25,47.5-97.9,85.69-137.81C2970.62,673.26,3038,636.53,3118,625c64.89-9.33,128.59-3.44,190.22,19.88,29.67,11.23,57,26.65,80.79,47.8,19.73,17.51,35.43,37.95,44,63.27s9.91,50.83,2.58,76.63c-7.89,27.76-26.13,45.72-53.48,53.74-29.29,8.6-57.38,4.7-83.49-11.42-19.52-12-30.73-29.73-33.79-52.3-2.1-15.49-1.2-31,3.68-46,8.26-25.36,25.9-42.15,49.64-53.08C3322.09,721.74,3326.3,720.44,3330.08,719Z" transform="translate(3278.85 -141.05)"/><path class="cls-2" d="M3543,648.05a559.94,559.94,0,0,0,175.75-21.12c3.1,4.3,2,8.42,2,12.29.11,22.48.06,45,.06,67.46q0,309.57,0,619.15c0,18.53,1,36.94,5,55.08.11.49.16,1,.26,1.48,6.76,32,26.12,51.94,57.66,60.13a210.87,210.87,0,0,0,45.87,6.68c3.49.11,7,0,10.49.16,2.87.14,4.52,1.8,4.73,4.69a42.72,42.72,0,0,1,.17,6c-.47,7.4,1.3,14.92-1.13,22.21-7.19,4.15-14.62.63-21.81.28-95.88-4.7-191.78-5.82-287.71-2.57-26,.88-51.89,2.62-77.82,4-5.22.27-6.29-.64-6.6-5.55-.06-1-.06-2,0-3q.32-12,.66-23.9c7.36-4.28,15.52-1.68,23.28-2.6,15.39-1.85,30.68-3.95,45.42-9q35.88-12.43,46.87-48.71a152,152,0,0,0,6.8-38.24q.55-15,.55-30,0-245.85,0-491.72c0-19.48,0-39-3.37-58.27-2.6-14.82-6.36-29.24-12.75-42.91-9.83-21-25.87-35.07-47.72-42.73-15.73-5.51-32.09-7.12-48.54-8.39-2.48-.19-5-.21-7.47-.41a3.61,3.61,0,0,1-3.58-3.88c.12-9.41-1.17-18.86.75-28.22,8.72-3.59,17.61-.84,26.3-.19,19.95,1.5,39.87,2.5,59.87,1.86A5.13,5.13,0,0,0,3543,648.05Z" transform="translate(3278.85 -141.05)"/><path class="cls-2" d="M3636.57,444.89C3581.41,447,3531.74,397.12,3531,342.24c-.84-58.05,51.64-105.75,104.12-106.16,51.76-.4,105.66,45.23,105.6,104.67S3687.75,446.65,3636.57,444.89Z" transform="translate(3278.85 -141.05)"/><path class="cls-3" d="M2427.18,813.08c.23,4.06-1.87,7-4.22,10.18-3.28-2.28-2-5.3-2.13-7.8a66.43,66.43,0,0,1,.7-8.53C2424.09,808.36,2423.9,812.32,2427.18,813.08Z" transform="translate(3278.85 -141.05)"/><path class="cls-3" d="M2211.15,1442.1a17.89,17.89,0,0,1-10.84,2.41c1.41-4.41,4.62-6.14,8.24-7.41A6.91,6.91,0,0,1,2211.15,1442.1Z" transform="translate(3278.85 -141.05)"/><path class="cls-3" d="M4286.82,1361.63c-.31-3.88,3.05-5.19,5.26-9.23a29,29,0,0,1,1,15.58Z" transform="translate(3278.85 -141.05)"/><path class="cls-3" d="M-632.76,804.13a43.94,43.94,0,0,1-1,5.28c-.14.45-1.35.66-2.09.77-.23,0-.74-.58-.83-1-.4-1.78-.84-3.6.51-5.23Z" transform="translate(3278.85 -141.05)"/><path class="cls-3" d="M2244,648.05a5.09,5.09,0,0,1-6,0Q2241,644.1,2244,648.05Z" transform="translate(3278.85 -141.05)"/><path class="cls-3" d="M2265,648a5.12,5.12,0,0,1-6,0Q2262,644.11,2265,648Z" transform="translate(3278.85 -141.05)"/><path class="cls-3" d="M3543,648.05a5.13,5.13,0,0,1-6,0Q3540,644.1,3543,648.05Z" transform="translate(3278.85 -141.05)"/><path class="cls-3" d="M-1604.94,1341a5.1,5.1,0,0,1-.07,6Q-1608.91,1344-1604.94,1341Z" transform="translate(3278.85 -141.05)"/><path class="cls-3" d="M1917.06,1359a5.76,5.76,0,0,1,.12-1.45c.68-2,2.62-3.89,4.12-3.3,1.67.64,1.37,3.2.38,5Z" transform="translate(3278.85 -141.05)"/><path class="cls-3" d="M882,1479a5.07,5.07,0,0,1,6,.06C886,1481.61,884,1481.58,882,1479Z" transform="translate(3278.85 -141.05)"/><path class="cls-3" d="M429.44,1356.23c-.59-1.13-.27-2.41.85-2.34s1.31,1.35.51,2.38l-.7.49Z" transform="translate(3278.85 -141.05)"/><path class="cls-4" d="M-2426.17,884.76c6.34,13.78,13,28.24,19.66,42.72,2.08,4.54,4.22,9,6.12,13.67,1.47,3.59.12,5.86-3.71,6.22-13.43,1.28-26.87,2.43-40.31,3.61-4.48.4-9,.58-13.44,1.15-9.54,1.24-10,1.7-10.75,10.84-1.3,14.93-2.51,29.87-3.77,44.8-.26,3-.47,6-1,8.94-.59,3.58-2.9,4.69-6.59,3.21-3.24-1.31-6.4-2.82-9.57-4.28-12.7-5.84-25.43-11.64-38.09-17.57-9.63-4.52-9.88-5-16.66,4.84-8.82,12.74-17.82,25.35-26.79,38-2,2.81-3.53,6.1-7.18,7.54-4.08-2.21-5.86-6.48-8.4-10-8.76-12.16-17.27-24.51-26-36.69-5.79-8.1-5.95-8.16-14.48-4.28-14.1,6.4-28.08,13-42.18,19.45-3.57,1.63-6.93,4.13-12,3.5-4.74-21.64-3.43-44.27-7.77-66-6-2.69-12-2.64-18-3.16-13.93-1.21-27.87-2.37-41.81-3.59-8.32-.72-9-1.62-5.73-8.8,6.59-14.56,13.35-29,20-43.55,1.25-2.72,2.51-5.44,3.76-8.17a5,5,0,0,0-1.65-6.58c-6.47-4.7-13-9.25-19.56-13.88-10.57-7.49-21.12-15-31.21-22.15-.91-4.83,2.6-5.77,4.82-7.35,14.25-10.15,28.63-20.1,42.89-30.23,6.46-4.59,6.48-4.75,3.11-12.17-7.43-16.37-15-32.66-22.43-49-2.92-6.5-2.37-7.18,5.19-7.92,17.9-1.76,35.81-3.4,53.69-5.26,7.34-.76,7.4-1,8.1-8,1.78-17.9,3.47-35.81,5.22-53.7.2-2,.6-3.9.85-5.56,3.55-2.5,6,.11,8.44,1.2,15.94,7.17,31.73,14.67,47.63,21.93,6.89,3.14,7.6,2.92,12.22-3.57,9.28-13,18.39-26.17,27.64-39.21,2.27-3.19,3.94-6.94,7.62-9,4.39,2,6.18,6.41,8.75,10,9.31,13,18.39,26.16,27.7,39.16,4.05,5.66,4.58,5.78,11.16,2.8,13.2-6,26.3-12.15,39.46-18.19,4.94-2.26,10-4.36,14.72-6.44,4.62,4.52,3.64,9.82,4.08,14.66,1.38,14.92,2.49,29.87,3.83,44.8.7,7.83,1.12,8.39,8.78,9.21,17.38,1.85,34.8,3.44,52.19,5.18,2.42.24,4.82.7,7,1,1.83,4.92-1.1,8.23-2.68,11.74-7,15.48-14.22,30.84-21.25,46.29-2.27,5-2.12,5.68,2.12,8.71,12.19,8.73,24.48,17.31,36.74,26l6.12,4.31c7.75,5.43,10.51,6.71.57,13.33-6.23,4.15-12.29,8.58-18.42,12.89q-11,7.75-22.06,15.53C-2421.89,879.26-2424.53,880.79-2426.17,884.76Z" transform="translate(3278.85 -141.05)"/></svg>